<?xml version="1.0" encoding="utf-8"?>
<svg xmlns="http://www.w3.org/2000/svg"
  style="margin: auto; display: block; shape-rendering: auto;" width="280" height="250"
  preserveAspectRatio="xMidYMid">
  <style type="text/css">
    text {
      text-anchor: middle;
      font-size: 57px;
      opacity: 0;
    }
  </style>
  <g style="transform-origin: 140px 125px; transform: scale(0.721519);">
    <g transform="translate(140,125)">
      <g transform="translate(0,0)">
        <g class="path"
          style="transform: scale(0.91); transform-origin: -73.27px -3.77764px; animation: 1s linear -0.528s infinite normal forwards running breath-9da1728d-a753-4ca0-9929-a2c9dee93227;">
          <path
            d="M7.11-0.16L7.11-55.14L7.11-55.14Q10.82-55.54 14.38-55.73L14.38-55.73L14.38-55.73Q17.93-55.93 22.52-55.93L22.52-55.93L22.52-55.93Q29.63-55.93 34.76-53.72L34.76-53.72L34.76-53.72Q39.90-51.51 43.29-47.64L43.29-47.64L43.29-47.64Q46.69-43.77 48.31-38.63L48.31-38.63L48.31-38.63Q49.93-33.50 49.93-27.73L49.93-27.73L49.93-27.73Q49.93-21.96 48.27-16.79L48.27-16.79L48.27-16.79Q46.61-11.61 43.17-7.74L43.17-7.74L43.17-7.74Q39.74-3.87 34.40-1.62L34.40-1.62L34.40-1.62Q29.07 0.63 21.65 0.63L21.65 0.63L21.65 0.63Q17.14 0.63 13.79 0.43L13.79 0.43L13.79 0.43Q10.43 0.24 7.11-0.16L7.11-0.16zM22.28-49.45L22.28-49.45L22.28-49.45Q19.99-49.45 18.09-49.34L18.09-49.34L18.09-49.34Q16.20-49.22 14.62-49.06L14.62-49.06L14.62-6.32L14.62-6.32Q16.27-6.08 18.09-6.00L18.09-6.00L18.09-6.00Q19.91-5.92 21.88-5.92L21.88-5.92L21.88-5.92Q27.18-5.92 31.05-7.54L31.05-7.54L31.05-7.54Q34.92-9.16 37.41-12.05L37.41-12.05L37.41-12.05Q39.90-14.93 41.08-18.92L41.08-18.92L41.08-18.92Q42.27-22.91 42.27-27.73L42.27-27.73L42.27-27.73Q42.27-32.00 41.08-35.91L41.08-35.91L41.08-35.91Q39.90-39.82 37.45-42.86L37.45-42.86L37.45-42.86Q35.00-45.90 31.21-47.68L31.21-47.68L31.21-47.68Q27.41-49.45 22.28-49.45"
            fill="#51cacc" stroke="none" stroke-width="none"
            transform="translate(-101.78997802734375,23.87236120605469)" style="fill: rgb(81, 202, 204);"></path>
        </g>
        <g class="path"
          style="transform: scale(0.91); transform-origin: -26.23px 3.33236px; animation: 1s linear -0.396s infinite normal forwards running breath-9da1728d-a753-4ca0-9929-a2c9dee93227;">
          <path
            d="M93.46-17.62L64.70-17.62L64.70-17.62Q65.41-11.85 68.73-8.61L68.73-8.61L68.73-8.61Q72.05-5.37 77.50-5.37L77.50-5.37L77.50-5.37Q81.05-5.37 83.90-6.12L83.90-6.12L83.90-6.12Q86.74-6.87 89.35-8.06L89.35-8.06L91.01-1.98L91.01-1.98Q88.16-0.63 84.61 0.16L84.61 0.16L84.61 0.16Q81.05 0.95 76.63 0.95L76.63 0.95L76.63 0.95Q72.21 0.95 68.65-0.51L68.65-0.51L68.65-0.51Q65.10-1.98 62.61-4.70L62.61-4.70L62.61-4.70Q60.12-7.43 58.78-11.42L58.78-11.42L58.78-11.42Q57.43-15.40 57.43-20.54L57.43-20.54L57.43-20.54Q57.43-25.12 58.78-29.07L58.78-29.07L58.78-29.07Q60.12-33.02 62.57-35.91L62.57-35.91L62.57-35.91Q65.02-38.79 68.41-40.41L68.41-40.41L68.41-40.41Q71.81-42.03 76.00-42.03L76.00-42.03L76.00-42.03Q80.42-42.03 83.74-40.53L83.74-40.53L83.74-40.53Q87.06-39.03 89.27-36.42L89.27-36.42L89.27-36.42Q91.48-33.81 92.59-30.34L92.59-30.34L92.59-30.34Q93.69-26.86 93.69-22.99L93.69-22.99L93.69-22.99Q93.69-20.22 93.46-17.62L93.46-17.62zM75.84-35.87L75.84-35.87L75.84-35.87Q71.18-35.87 68.22-32.71L68.22-32.71L68.22-32.71Q65.25-29.55 64.62-23.38L64.62-23.38L87.14-23.38L87.14-23.38Q87.14-29.39 84.14-32.63L84.14-32.63L84.14-32.63Q81.13-35.87 75.84-35.87"
            fill="#51cacc" stroke="none" stroke-width="none"
            transform="translate(-101.78997802734375,23.87236120605469)" style="fill: rgb(157, 248, 113);"></path>
        </g>
        <g class="path"
          style="transform: scale(0.91); transform-origin: 11.495px -4.88264px; animation: 1s linear -0.264s infinite normal forwards running breath-9da1728d-a753-4ca0-9929-a2c9dee93227;">
          <path
            d="M109.89-58.46L109.89-13.59L109.89-13.59Q109.89-9.32 111.67-7.27L111.67-7.27L111.67-7.27Q113.44-5.21 116.60-5.21L116.60-5.21L116.60-5.21Q118.11-5.21 119.53-5.57L119.53-5.57L119.53-5.57Q120.95-5.92 122.06-6.40L122.06-6.40L123.79-0.63L123.79-0.63Q122.37 0 120.28 0.47L120.28 0.47L120.28 0.47Q118.18 0.95 115.66 0.95L115.66 0.95L115.66 0.95Q112.89 0.95 110.56 0.16L110.56 0.16L110.56 0.16Q108.23-0.63 106.49-2.29L106.49-2.29L106.49-2.29Q104.75-3.95 103.77-6.56L103.77-6.56L103.77-6.56Q102.78-9.16 102.78-12.88L102.78-12.88L102.78-58.46L109.89-58.46"
            fill="#51cacc" stroke="none" stroke-width="none"
            transform="translate(-101.78997802734375,23.87236120605469)" style="fill: rgb(224, 255, 119);"></path>
        </g>
        <g class="path"
          style="transform: scale(0.91); transform-origin: 45.785px 3.33236px; animation: 1s linear -0.132s infinite normal forwards running breath-9da1728d-a753-4ca0-9929-a2c9dee93227;">
          <path
            d="M126.56-20.30L126.56-20.30L126.56-20.30Q126.56-24.89 127.98-28.87L127.98-28.87L127.98-28.87Q129.40-32.86 131.97-35.79L131.97-35.79L131.97-35.79Q134.54-38.71 138.13-40.37L138.13-40.37L138.13-40.37Q141.73-42.03 145.99-42.03L145.99-42.03L145.99-42.03Q149.55-42.03 152.43-40.80L152.43-40.80L152.43-40.80Q155.31-39.58 157.45-37.76L157.45-37.76L157.45-41.08L163.93-41.08L163.93-9.95L163.93-9.95Q163.93-6.95 165.39-6.04L165.39-6.04L165.39-6.04Q166.85-5.13 168.59-5.13L168.59-5.13L167.09 0.40L167.09 0.40Q159.50 0.40 157.92-5.77L157.92-5.77L157.92-5.77Q156.97-4.50 155.75-3.28L155.75-3.28L155.75-3.28Q154.52-2.05 152.94-1.11L152.94-1.11L152.94-1.11Q151.36-0.16 149.39 0.40L149.39 0.40L149.39 0.40Q147.41 0.95 145.04 0.95L145.04 0.95L145.04 0.95Q141.17 0.95 137.82-0.55L137.82-0.55L137.82-0.55Q134.46-2.05 131.97-4.82L131.97-4.82L131.97-4.82Q129.48-7.58 128.02-11.49L128.02-11.49L128.02-11.49Q126.56-15.40 126.56-20.30zM146.62-5.37L146.62-5.37L146.62-5.37Q149.63-5.37 152.31-6.79L152.31-6.79L152.31-6.79Q155.00-8.22 156.81-10.51L156.81-10.51L156.81-32.55L156.81-32.55Q154.68-34.05 152.11-34.96L152.11-34.96L152.11-34.96Q149.55-35.87 146.70-35.87L146.70-35.87L146.70-35.87Q143.86-35.87 141.49-34.76L141.49-34.76L141.49-34.76Q139.12-33.65 137.42-31.64L137.42-31.64L137.42-31.64Q135.72-29.63 134.77-26.78L134.77-26.78L134.77-26.78Q133.83-23.94 133.83-20.54L133.83-20.54L133.83-20.54Q133.83-17.22 134.77-14.42L134.77-14.42L134.77-14.42Q135.72-11.61 137.46-9.60L137.46-9.60L137.46-9.60Q139.20-7.58 141.53-6.48L141.53-6.48L141.53-6.48Q143.86-5.37 146.62-5.37"
            fill="#51cacc" stroke="none" stroke-width="none"
            transform="translate(-101.78997802734375,23.87236120605469)" style="fill: rgb(222, 157, 214);"></path>
        </g>
        <g class="path"
          style="transform: scale(0.91); transform-origin: 88.835px 12.0224px; animation: 1s linear 0s infinite normal forwards running breath-9da1728d-a753-4ca0-9929-a2c9dee93227;">
          <path
            d="M177.51 18.33L177.51 18.33L177.51 18.33Q175.14 18.33 173.37 17.85L173.37 17.85L173.37 17.85Q171.59 17.38 170.56 16.75L170.56 16.75L172.14 10.82L172.14 10.82Q173.09 11.38 174.47 11.77L174.47 11.77L174.47 11.77Q175.85 12.17 177.67 12.17L177.67 12.17L177.67 12.17Q179.33 12.17 180.79 11.69L180.79 11.69L180.79 11.69Q182.25 11.22 183.60 10.03L183.60 10.03L183.60 10.03Q184.94 8.85 186.16 6.79L186.16 6.79L186.16 6.79Q187.39 4.74 188.57 1.66L188.57 1.66L190.39-3.08L186.60-3.08L170.56-39.18L176.88-42.03L192.21-7.82L204.14-41.71L210.69-39.18L195.60 2.05L195.60 2.05Q193.87 6.79 191.93 9.91L191.93 9.91L191.93 9.91Q190.00 13.04 187.78 14.93L187.78 14.93L187.78 14.93Q185.57 16.83 183.00 17.58L183.00 17.58L183.00 17.58Q180.44 18.33 177.51 18.33"
            fill="#51cacc" stroke="none" stroke-width="none"
            transform="translate(-101.78997802734375,23.87236120605469)" style="fill: rgb(255, 112, 142);"></path>
        </g>
      </g>
    </g>
  </g>
  <style id="breath-9da1728d-a753-4ca0-9929-a2c9dee93227" data-anikit="">
    @keyframes breath-9da1728d-a753-4ca0-9929-a2c9dee93227 {
      0% {
        animation-timing-function: cubic-bezier(0.9647, 0.2413, -0.0705, 0.7911);
        transform: scale(0.9099999999999999);
      }

      51% {
        animation-timing-function: cubic-bezier(0.9226, 0.2631, -0.0308, 0.7628);
        transform: scale(1.02994);
      }

      100% {
        transform: scale(0.9099999999999999);
      }
    }
  </style>
</svg>